<svg xmlns="http://www.w3.org/2000/svg" width="600" height="600" viewBox="0 0 600 600" version="1.1"><path d="M 73.709 206.624 C 73.319 207.014, 73 225.483, 73 247.667 L 73 288 79.500 288 L 86 288 86.072 256.750 C 86.112 239.563, 86.224 221.225, 86.322 216 L 86.500 206.500 80.459 206.208 C 77.136 206.047, 74.099 206.234, 73.709 206.624 M 98.468 207.052 C 98.111 207.630, 98.148 226.100, 98.551 248.096 L 99.285 288.088 105.392 287.794 L 111.500 287.500 111.757 268.500 C 111.899 258.050, 112.124 246.695, 112.257 243.267 L 112.500 237.034 132 262.517 L 151.500 288 156.261 288 L 161.022 288 160.761 247.250 L 160.500 206.500 154.111 206.500 L 147.722 206.500 147.920 231.750 C 148.033 246.288, 147.733 257, 147.213 257 C 146.715 257, 137.576 245.525, 126.904 231.501 L 107.500 206.001 103.309 206.001 C 101.004 206, 98.826 206.473, 98.468 207.052 M 183.219 207.224 C 178.910 208.646, 174.364 213.936, 172.956 219.163 C 171.244 225.521, 172.117 242.673, 174.386 247.270 C 178.074 254.741, 180.165 255.436, 200.670 256 C 210.664 256.275, 219.154 256.815, 219.538 257.201 C 219.921 257.586, 220.467 259.959, 220.750 262.475 C 221.145 265.980, 220.848 267.511, 219.478 269.025 C 217.851 270.822, 216.359 271, 202.916 271 C 190.819 271, 187.858 270.715, 186.571 269.429 C 185.707 268.564, 185 267.253, 185 266.514 C 185 265.559, 183.088 265.074, 178.382 264.835 L 171.764 264.500 172.276 270.125 C 172.954 277.575, 175.409 282.469, 179.856 285.234 C 183.320 287.388, 184.469 287.500, 203.177 287.500 C 225.834 287.500, 226.556 287.265, 230.986 278.448 C 235.619 269.224, 234.681 251.340, 229.224 244.854 C 224.876 239.687, 221.866 239, 203.567 239 C 188.281 239, 186.994 238.858, 186.035 237.066 C 184.620 234.422, 184.728 226.672, 186.200 225.200 C 187.032 224.368, 192.256 224, 203.252 224 L 219.104 224 220.150 227 C 221.167 229.918, 221.374 230, 227.686 230 L 234.177 230 233.606 224.397 C 232.833 216.803, 229.512 211.006, 224.500 208.500 C 221.024 206.762, 218.273 206.476, 203.500 206.320 C 193.463 206.214, 185.156 206.584, 183.219 207.224 M 245 215 L 245 224 257 224 L 269 224 269 256 L 269 288 275.500 288 L 282 288 282.214 263.750 C 282.332 250.412, 282.522 237.700, 282.637 235.500 C 282.752 233.300, 282.881 229.813, 282.923 227.750 L 283 224 295 224 L 307 224 307 215 L 307 206 276 206 L 245 206 245 215 M 332.519 207.598 C 327.198 209.546, 322.413 214.361, 320.262 219.934 C 318.763 223.820, 318.500 227.928, 318.500 247.500 C 318.500 268.876, 318.650 270.818, 320.626 275 C 325.432 285.172, 329.663 287.313, 345.974 287.826 C 365.941 288.454, 372.547 285.987, 377.182 276.171 C 379.192 271.917, 379.423 269.613, 379.779 250.354 C 380.095 233.209, 379.864 228.018, 378.556 222.911 C 375.142 209.585, 368.709 205.955, 348.712 206.070 C 340.667 206.117, 335.142 206.638, 332.519 207.598 M 392.511 206.982 C 392.135 207.591, 392.074 221.906, 392.377 238.794 C 392.679 255.683, 392.943 273.684, 392.963 278.798 L 393 288.095 399.250 287.798 L 405.500 287.500 405.727 272.500 C 405.852 264.250, 405.965 257.163, 405.977 256.750 C 405.990 256.337, 408.227 256, 410.949 256 C 415.503 256, 416.122 256.299, 418.699 259.750 C 420.240 261.813, 421.950 263.987, 422.500 264.582 C 423.050 265.176, 427.293 270.689, 431.928 276.832 L 440.357 288 449.771 288 L 459.186 288 455.300 283.250 C 453.163 280.637, 448.123 274.109, 444.100 268.743 C 440.077 263.376, 436.384 258.737, 435.893 258.434 C 433.903 257.204, 435.245 256.233, 439.614 255.740 C 445.584 255.067, 448.910 252.570, 451.989 246.448 C 454.167 242.119, 454.479 240.184, 454.489 230.975 C 454.499 221.650, 454.210 219.886, 451.956 215.506 C 447.499 206.841, 446.432 206.550, 417.848 206.187 C 400.592 205.969, 392.990 206.207, 392.511 206.982 M 466 247 L 466 288 497 288 L 528 288 528 279.500 L 528 271 503.500 271 L 479 271 479 263.500 L 479 256 500.927 256 L 522.853 256 523.177 247.498 L 523.500 238.995 501.250 238.998 L 479 239 479 231.500 L 479 224 503.500 224 L 528 224 528 215 L 528 206 497 206 L 466 206 466 247 M 333.924 226.578 C 331.594 229.057, 331.487 229.796, 331.163 245.660 C 330.660 270.224, 331.561 271.391, 350.586 270.833 C 366.682 270.361, 366.402 270.716, 366.823 250.273 C 367.364 224.058, 367.325 224, 348.986 224 C 336.697 224, 336.282 224.071, 333.924 226.578 M 406 231.500 L 406 239 422.378 239 C 434.299 239, 439.039 238.658, 439.797 237.744 C 441.692 235.462, 442.207 231.158, 441.018 227.553 L 439.845 224 422.922 224 L 406 224 406 231.500 M 73 356 L 73 393 76.500 393.111 C 78.425 393.172, 81.013 393.273, 82.250 393.334 L 84.500 393.446 85 370.566 L 85.500 347.685 102.484 370.342 L 119.467 393 123.734 393 L 128 393 128 355.950 L 128 318.900 122.250 319.200 L 116.500 319.500 116.500 342.751 C 116.500 355.538, 116.275 365.989, 116 365.975 C 115.493 365.948, 111.889 361.079, 93.067 335 C 87.311 327.025, 82.129 320.169, 81.551 319.765 C 80.973 319.361, 78.813 319.024, 76.750 319.015 L 73 319 73 356 M 138 355.984 L 138 393 165.500 393 L 193 393 193 385.520 L 193 378.040 171.750 377.770 L 150.500 377.500 150.204 370.750 L 149.909 364 169.454 364 L 189 364 189 356 L 189 348 169.500 348 L 150 348 150 341.500 L 150 335 171.542 335 L 193.084 335 192.792 327.250 L 192.500 319.500 165.250 319.234 L 138 318.968 138 355.984 M 203 326.984 L 203 335 213.387 335 L 223.774 335 224.507 360.409 C 224.910 374.384, 225.051 387.434, 224.821 389.409 L 224.402 393 230.185 393 L 235.969 393 236.235 364.250 L 236.500 335.500 247.291 335.216 L 258.083 334.931 257.791 327.216 L 257.500 319.500 230.250 319.234 L 203 318.968 203 326.984 M 269 355.950 L 269 393 273.265 393 L 277.530 393 286.849 380.490 L 296.168 367.980 303.334 377.338 C 307.275 382.484, 311.580 388.114, 312.900 389.848 C 314.914 392.494, 315.967 393, 319.456 393 L 323.612 393 323.556 356.250 L 323.500 319.500 317.768 319.201 L 312.036 318.901 311.768 342.701 L 311.500 366.500 304.161 356.696 C 300.125 351.304, 296.434 347.029, 295.961 347.196 C 295.487 347.363, 291.935 351.729, 288.068 356.898 L 281.038 366.296 280.769 342.898 L 280.500 319.500 274.750 319.200 L 269 318.900 269 355.950 M 346 320.594 C 335.932 324.955, 334 330.592, 334 355.605 C 334 377.657, 334.998 382.998, 340.067 388.067 C 344.492 392.492, 346.846 393.001, 362.875 392.996 C 373.625 392.993, 375.975 392.703, 378.696 391.044 C 382.297 388.848, 384.914 385.266, 386.734 380.045 C 388.661 374.518, 388.448 337.521, 386.457 331.879 C 384.507 326.352, 379.625 321.268, 375.044 319.996 C 369.391 318.425, 350.090 318.823, 346 320.594 M 398.667 319.667 C 397.824 320.510, 397.822 336.653, 398.662 368.250 L 399.320 393 404.633 393 L 409.945 393 410.223 378.750 L 410.500 364.500 415 364.250 L 419.500 363.999 429.920 378.500 L 440.340 393 448.642 393 L 456.944 393 451.127 385.250 C 447.929 380.988, 443.170 374.581, 440.553 371.014 L 435.794 364.528 439.430 363.773 C 445.706 362.469, 448.621 360.338, 450.974 355.332 C 452.940 351.149, 453.163 349.322, 452.843 340.041 C 452.540 331.241, 452.107 328.897, 450.221 325.851 C 446.450 319.760, 443.058 319, 419.646 319 C 408.474 319, 399.033 319.300, 398.667 319.667 M 463 356 L 463 393 469 393 L 475 393 475 378.500 L 475 364 481.795 364 L 488.591 364 499.045 378.467 L 509.500 392.934 517.740 392.967 L 525.979 393 512.382 374.466 L 498.785 355.933 512.142 338.256 C 519.489 328.534, 525.650 320.224, 525.833 319.790 C 526.017 319.355, 522.534 319, 518.095 319 L 510.023 319 499.262 333.457 L 488.500 347.914 481.750 347.957 L 475 348 475 333.500 L 475 319 469 319 L 463 319 463 356 M 349.971 335.647 C 346.324 336.636, 345.515 340.101, 345.166 356.239 L 344.825 371.979 347.835 374.989 C 350.755 377.909, 351.128 378, 360.173 377.986 C 365.303 377.979, 370.531 377.697, 371.790 377.359 C 375.988 376.235, 377 372.320, 377 357.199 C 377 342.693, 376.035 337.624, 372.961 335.979 C 371.212 335.043, 353.159 334.782, 349.971 335.647 M 410.667 335.667 C 410.300 336.033, 410 338.958, 410 342.167 L 410 348 424.965 348 C 438.737 348, 440.012 347.846, 440.965 346.066 C 441.534 345.002, 442 342.947, 442 341.500 C 442 340.053, 441.534 337.998, 440.965 336.934 C 440.015 335.160, 438.744 335, 425.631 335 C 417.768 335, 411.033 335.300, 410.667 335.667" stroke="none" fill="#c92930" fill-rule="evenodd"/><path d="M 279 7.460 C 279 7.713, 281.250 10.024, 284 12.597 C 286.750 15.169, 289 17.914, 289 18.697 C 289 19.479, 286.685 22.568, 283.855 25.560 C 279.115 30.572, 278.901 31, 281.136 31 C 282.774 31, 285.482 29.060, 289.470 25.031 L 295.376 19.062 289.938 13.144 C 285.979 8.835, 283.752 7.195, 281.750 7.113 C 280.238 7.051, 279 7.207, 279 7.460 M 296.855 12.440 C 299.685 15.432, 302 18.210, 302 18.613 C 302 19.015, 299.719 21.967, 296.931 25.172 C 292.282 30.518, 292.057 31, 294.213 31 C 295.757 31, 298.587 28.954, 302.470 25.031 L 308.376 19.062 302.938 13.144 C 298.840 8.684, 296.787 7.198, 294.605 7.113 L 291.710 7 296.855 12.440 M 309.914 12.413 L 315.260 17.826 313.221 20.663 C 312.100 22.223, 309.792 24.822, 308.091 26.437 C 304.498 29.851, 304.221 31, 306.989 31 C 308.127 31, 311.518 28.331, 314.917 24.759 L 320.856 18.518 315.678 12.872 C 311.744 8.582, 309.788 7.199, 307.534 7.113 L 304.568 7 309.914 12.413 M 322.750 12.185 C 325.637 15.143, 328 17.920, 328 18.356 C 328 18.792, 325.491 21.778, 322.425 24.993 L 316.851 30.837 322.675 31.425 C 345.905 33.769, 373.275 39.949, 394 47.529 C 407.553 52.486, 433.742 65.739, 446.500 74.097 C 491.310 103.452, 528.375 148.026, 548.281 196.500 C 557.300 218.462, 563.299 240.973, 566.602 265.250 C 567.573 272.389, 568.799 278, 569.387 278 C 569.964 278, 572.715 280.250, 575.500 283 L 580.563 288 586.390 282.111 L 592.217 276.222 591.075 267.361 C 587.994 243.455, 583.887 224.807, 577.672 206.500 C 547.881 118.739, 478.358 49.716, 391 21.171 C 371.437 14.779, 347.772 9.943, 324 7.481 L 317.500 6.807 322.750 12.185 M 254.500 10.102 C 188.711 20.526, 129.669 52.205, 83.848 101.664 C 56.558 131.120, 34.598 168.420, 21.505 207.553 C 14.376 228.861, 8.785 256.812, 7.366 278.240 L 6.753 287.500 12.258 282.151 C 18.576 276.012, 19.198 276.057, 26.607 283.185 L 30.714 287.136 31.384 278.318 C 34.709 234.534, 50.748 188.090, 75.179 151.499 C 116.984 88.890, 181.615 46.744, 254.500 34.565 L 270.500 31.891 276.535 25.311 L 282.570 18.731 276.944 13.366 C 270.546 7.262, 271.525 7.405, 254.500 10.102 M 12.865 289.496 C 7.852 294.346, 4.571 300, 6.769 300 C 7.212 300, 9.791 297.750, 12.500 295 C 15.209 292.250, 17.936 290, 18.560 290 C 19.184 290, 21.901 292.015, 24.598 294.478 C 30.065 299.472, 31 299.856, 31 297.104 C 31 295.497, 21.311 284.959, 19.201 284.272 C 18.816 284.146, 15.964 286.497, 12.865 289.496 M 569.024 286.531 C 569.005 288.912, 570.235 290.784, 574.750 295.249 L 580.500 300.935 586.750 294.853 C 590.188 291.507, 593 287.922, 593 286.885 C 593 284.144, 592.068 284.522, 586.507 289.516 C 583.760 291.982, 580.763 294, 579.847 294 C 578.930 294, 576.126 291.637, 573.614 288.750 L 569.049 283.500 569.024 286.531 M 12.750 302.496 C 8.445 306.551, 7 308.608, 7 310.675 C 7 313.347, 7.192 313.247, 12.846 307.652 L 18.693 301.867 24.237 306.933 C 27.286 309.720, 30.055 312, 30.390 312 C 30.726 312, 31 311.136, 31 310.080 C 31 308.462, 21.276 297.940, 19.180 297.289 C 18.806 297.173, 15.912 299.516, 12.750 302.496 M 569 299.565 C 569 301.890, 570.298 303.847, 574.779 308.281 L 580.558 314 586.779 307.723 C 590.659 303.808, 593 300.610, 593 299.223 C 593 298, 592.774 297, 592.497 297 C 592.221 297, 590.326 298.847, 588.286 301.105 C 586.246 303.363, 583.468 305.632, 582.113 306.147 C 579.935 306.975, 579.028 306.472, 574.324 301.826 L 569 296.568 569 299.565 M 74.190 303.750 L 74.500 307.500 286.500 307.759 C 403.100 307.901, 498.978 307.835, 499.561 307.613 C 500.153 307.387, 500.436 305.613, 500.202 303.604 L 499.781 300 286.830 300 L 73.879 300 74.190 303.750 M 506 300.626 C 506 301.162, 506.563 302.170, 507.250 302.867 C 508.252 303.883, 508.117 304.417, 506.573 305.557 C 505.513 306.339, 504.927 307.260, 505.270 307.604 C 505.614 307.947, 507.026 307.338, 508.408 306.251 L 510.921 304.274 508.460 301.963 C 507.107 300.692, 506 300.090, 506 300.626 M 510 300.645 C 510 301.170, 510.521 302.121, 511.158 302.758 C 512.034 303.634, 512 304.295, 511.015 305.482 C 509.057 307.841, 510.182 308.086, 512.892 305.889 C 514.207 304.823, 515.107 303.844, 514.892 303.714 C 514.676 303.585, 513.487 302.626, 512.250 301.584 C 511.012 300.542, 510 300.120, 510 300.645 M 514 300.800 C 514 301.240, 514.521 302.121, 515.158 302.758 C 516.034 303.634, 516 304.295, 515.015 305.482 C 513.072 307.824, 514.193 308.117, 516.998 306.001 L 519.467 304.139 517.080 302.070 C 514.459 299.796, 514 299.607, 514 300.800 M 518 300.810 C 518 302.099, 521.910 305.424, 522.606 304.727 C 522.933 304.400, 522.905 303.656, 522.544 303.072 C 521.607 301.556, 518 299.760, 518 300.810 M 503.128 302.663 C 504.198 303.959, 504.225 304.418, 503.250 304.746 C 502.563 304.977, 502 305.904, 502 306.806 C 502 308.161, 502.374 308.070, 504.168 306.277 C 505.980 304.464, 506.124 303.854, 505.045 302.555 C 504.336 301.700, 503.305 301, 502.755 301 C 502.205 301, 502.373 301.748, 503.128 302.663 M 523.441 302.532 C 525.362 303.985, 525.362 304.015, 523.443 305.418 C 522.376 306.198, 521.734 307.067, 522.017 307.350 C 522.299 307.632, 523.626 307.036, 524.966 306.026 C 527.045 304.458, 527.208 303.955, 526.078 302.594 C 525.351 301.717, 524.023 301.014, 523.128 301.032 C 521.760 301.059, 521.810 301.298, 523.441 302.532 M 12.750 315.253 C 9.588 318.533, 7 322.068, 7 323.109 C 7 325.946, 8.143 325.449, 13 320.500 C 15.429 318.025, 18.025 316, 18.768 316 C 19.511 316, 22.499 318.250, 25.406 321 C 28.314 323.750, 31.036 326, 31.455 326 C 33.400 326, 30.461 320.303, 26.609 316.608 C 18.066 308.410, 19.236 308.525, 12.750 315.253 M 569 312.565 C 569 314.890, 570.298 316.847, 574.779 321.281 L 580.558 327 586.866 320.635 C 591.608 315.851, 593.091 313.693, 592.837 311.947 C 592.514 309.720, 592.356 309.779, 589 313.389 C 587.075 315.459, 584.206 317.835, 582.624 318.668 C 579.775 320.167, 579.695 320.130, 574.374 314.875 L 569 309.568 569 312.565 M 13.287 327.290 L 8.233 332.633 10.124 345.067 C 29.241 470.785, 129.743 571.133, 255.328 589.896 C 262.573 590.979, 272.100 592.168, 276.500 592.539 L 284.500 593.214 279.877 588.357 C 272.351 580.450, 272.332 580.291, 278.179 574.343 L 283.248 569.186 276.374 568.530 C 250.815 566.092, 222.767 559.330, 199.165 549.915 C 114.341 516.079, 50.299 437.384, 34.897 348.061 L 32.609 334.791 26.226 328.645 C 22.715 325.265, 19.504 322.376, 19.091 322.223 C 18.678 322.071, 16.066 324.351, 13.287 327.290 M 567.993 324.250 C 567.974 328.052, 563.621 353.931, 561.561 362.500 C 547.374 421.495, 514.438 473.091, 466.571 511.311 C 452.165 522.814, 438.820 531.282, 420.500 540.544 C 395.436 553.216, 373.152 560.562, 344.769 565.511 L 330.038 568.079 324.769 573.631 C 321.871 576.685, 319.335 579.637, 319.133 580.192 C 318.932 580.747, 321.177 583.642, 324.124 586.625 C 330.238 592.816, 327.790 592.598, 350 588.930 C 440.017 574.063, 519.992 514.671, 561.600 431.790 C 578.089 398.945, 586.938 368.451, 591.574 328.500 L 592.270 322.500 586.695 327.750 C 583.629 330.637, 580.738 333, 580.272 333 C 579.806 333, 577.209 330.750, 574.500 328 C 569.463 322.886, 568.005 322.046, 567.993 324.250 M 285.216 574.281 C 282.347 577.186, 280 579.986, 280 580.502 C 280 581.019, 282.573 584.043, 285.719 587.221 C 290.058 591.606, 292.134 593, 294.326 593 C 297.213 593, 297.210 592.994, 291.608 586.943 C 288.523 583.612, 286 580.555, 286 580.151 C 286 579.747, 288.025 577.429, 290.500 575 C 295.596 569.999, 295.965 569, 292.716 569 C 291.284 569, 288.486 570.970, 285.216 574.281 M 297.775 574.750 L 292.114 580.500 298.307 586.752 C 302.255 590.737, 305.316 593.003, 306.750 593.002 C 307.988 593.001, 309 592.706, 309 592.347 C 309 591.987, 306.750 589.314, 304 586.406 C 301.250 583.499, 299 580.736, 299 580.268 C 299 579.800, 301.025 577.429, 303.500 575 C 308.595 570, 308.965 569, 305.719 569 C 304.265 569, 301.384 571.085, 297.775 574.750 M 310.719 574.779 L 305 580.558 311.277 586.779 C 315.192 590.659, 318.390 593, 319.777 593 C 321 593, 322 592.706, 322 592.347 C 322 591.987, 319.750 589.314, 317 586.406 C 314.250 583.499, 312 580.530, 312 579.810 C 311.999 579.089, 314.362 576.382, 317.250 573.793 L 322.500 569.087 319.469 569.043 C 317.075 569.009, 315.235 570.215, 310.719 574.779" stroke="none" fill="#2b60b1" fill-rule="evenodd"/></svg>