<svg width="1645" height="963" viewBox="0 0 1645 963" fill="none" xmlns="http://www.w3.org/2000/svg">
<line x1="126" y1="114.5" x2="1521" y2="114.5" stroke="black" stroke-width="3"/>
<line x1="123" y1="849.5" x2="1519" y2="849.5" stroke="black" stroke-width="3"/>
<line x1="67.9999" y1="59.5" x2="1577" y2="59.3898" stroke="black" stroke-width="3"/>
<line x1="1520.5" y1="851" x2="1520.5" y2="112.999" stroke="black" stroke-width="3"/>
<line x1="124.5" y1="851" x2="124.5" y2="113" stroke="black" stroke-width="3"/>
<line x1="69.5" y1="903" x2="69.5" y2="61" stroke="black" stroke-width="3"/>
<line x1="67.9999" y1="904.609" x2="1577" y2="904.499" stroke="black" stroke-width="3"/>
<line x1="1575.5" y1="903" x2="1575.5" y2="60" stroke="black" stroke-width="3"/>
<rect x="1063.5" y="61.5" width="510" height="51" fill="#EA1F26" stroke="#EA1F26"/>
<rect x="71.5" y="61.5" width="1126" height="51" fill="#EA1F26" stroke="#EA1F26"/>
<rect x="1573.5" y="113.5" width="789" height="51" transform="rotate(90 1573.5 113.5)" fill="#EA1F26" stroke="#EA1F26"/>
<rect x="122.5" y="113.5" width="789" height="51" transform="rotate(90 122.5 113.5)" fill="#EA1F26" stroke="#EA1F26"/>
<rect x="1567.5" y="902.5" width="1496" height="51" transform="rotate(180 1567.5 902.5)" fill="#EA1F26" stroke="#EA1F26"/>
<path d="M614.791 68.956C609.196 68.956 606.398 70.804 606.398 74.5C606.398 76.1427 607.091 77.4003 608.477 78.273C609.863 79.1457 613.097 80.4033 618.179 82.046C623.312 83.6887 626.906 85.5623 628.959 87.667C631.012 89.7203 632.039 92.903 632.039 97.215C632.039 102.708 630.371 106.866 627.034 109.689C623.697 112.512 619.334 113.924 613.944 113.924C609.94 113.924 605.038 113.308 599.237 112.076L596.465 111.537L597.543 103.298C604.422 104.222 609.683 104.684 613.328 104.684C618.769 104.684 621.49 102.425 621.49 97.908C621.49 96.2653 620.848 94.982 619.565 94.058C618.333 93.134 615.843 92.133 612.096 91.055C606.141 89.361 601.932 87.359 599.468 85.049C597.055 82.6877 595.849 79.428 595.849 75.27C595.849 70.034 597.44 66.1327 600.623 63.566C603.806 60.9993 608.169 59.716 613.713 59.716C617.512 59.716 622.337 60.2293 628.189 61.256L630.961 61.795L630.114 70.188C622.876 69.3667 617.768 68.956 614.791 68.956ZM632.805 70.034V60.64H671.305V70.034H657.445V113H646.819V70.034H632.805ZM683.048 100.68C684.588 103.349 687.437 104.684 691.595 104.684C695.753 104.684 698.576 103.349 700.065 100.68C701.605 97.9593 702.375 93.442 702.375 87.128C702.375 80.7627 701.605 76.1427 700.065 73.268C698.525 70.3933 695.702 68.956 691.595 68.956C687.488 68.956 684.665 70.3933 683.125 73.268C681.585 76.1427 680.815 80.7627 680.815 87.128C680.815 93.442 681.559 97.9593 683.048 100.68ZM708.381 107.456C705.147 111.768 699.552 113.924 691.595 113.924C683.638 113.924 678.017 111.768 674.732 107.456C671.498 103.093 669.881 96.291 669.881 87.051C669.881 77.811 671.498 70.958 674.732 66.492C678.017 61.9747 683.638 59.716 691.595 59.716C699.552 59.716 705.147 61.9747 708.381 66.492C711.666 70.958 713.309 77.811 713.309 87.051C713.309 96.291 711.666 103.093 708.381 107.456ZM727.657 95.444V113H717.031V60.64H737.359C749.679 60.64 755.839 66.3893 755.839 77.888C755.839 84.7153 753.273 89.746 748.139 92.98L755.608 113H743.981L737.898 95.444H727.657ZM737.513 86.358C740.029 86.358 741.902 85.588 743.134 84.048C744.366 82.508 744.982 80.4803 744.982 77.965C744.982 75.4497 744.315 73.4477 742.98 71.959C741.697 70.4703 739.823 69.726 737.359 69.726H727.657V86.358H737.513ZM759.39 113V60.64H793.27V69.88H770.016V82.123H788.65V91.209H770.016V103.76H793.27V113H759.39ZM815.459 60.64H826.624L833.092 103.914H834.247L843.641 60.64H855.961L865.355 103.914H866.51L872.978 60.64H884.143L874.133 113H858.04L849.801 73.191L841.562 113H825.469L815.459 60.64ZM885.89 113V60.64H896.516V113H885.89ZM902.532 113V60.64H920.473L933.101 103.76H933.871V60.64H944.497V113H927.018L913.928 69.88H913.158V113H902.532ZM968.164 113H950.531V60.64H968.164C972.681 60.64 976.403 61.1277 979.329 62.103C982.255 63.027 984.514 64.5927 986.105 66.8C987.748 68.956 988.877 71.5227 989.493 74.5C990.109 77.426 990.417 81.2503 990.417 85.973C990.417 90.6957 990.135 94.6227 989.57 97.754C989.005 100.834 987.927 103.606 986.336 106.07C984.796 108.483 982.537 110.254 979.56 111.383C976.583 112.461 972.784 113 968.164 113ZM979.329 92.21C979.432 90.5673 979.483 88.3087 979.483 85.434C979.483 82.508 979.38 80.1723 979.175 78.427C978.97 76.6817 978.482 75.0903 977.712 73.653C976.942 72.2157 975.787 71.2403 974.247 70.727C972.758 70.1623 970.731 69.88 968.164 69.88H961.157V103.76H968.164C972.014 103.76 974.812 102.785 976.557 100.834C978.046 99.2427 978.97 96.368 979.329 92.21ZM1005.1 100.68C1006.64 103.349 1009.49 104.684 1013.65 104.684C1017.81 104.684 1020.63 103.349 1022.12 100.68C1023.66 97.9593 1024.43 93.442 1024.43 87.128C1024.43 80.7627 1023.66 76.1427 1022.12 73.268C1020.58 70.3933 1017.75 68.956 1013.65 68.956C1009.54 68.956 1006.72 70.3933 1005.18 73.268C1003.64 76.1427 1002.87 80.7627 1002.87 87.128C1002.87 93.442 1003.61 97.9593 1005.1 100.68ZM1030.43 107.456C1027.2 111.768 1021.6 113.924 1013.65 113.924C1005.69 113.924 1000.07 111.768 996.784 107.456C993.55 103.093 991.933 96.291 991.933 87.051C991.933 77.811 993.55 70.958 996.784 66.492C1000.07 61.9747 1005.69 59.716 1013.65 59.716C1021.6 59.716 1027.2 61.9747 1030.43 66.492C1033.72 70.958 1035.36 77.811 1035.36 87.051C1035.36 96.291 1033.72 103.093 1030.43 107.456ZM1034.85 60.64H1046.01L1052.48 103.914H1053.64L1063.03 60.64H1075.35L1084.74 103.914H1085.9L1092.37 60.64H1103.53L1093.52 113H1077.43L1069.19 73.191L1060.95 113H1044.86L1034.85 60.64Z" fill="white"/>
</svg>
