<svg xmlns="http://www.w3.org/2000/svg" width="600" height="600" viewBox="0 0 600 600" version="1.1"><path d="M 73.709 206.624 C 73.319 207.014, 73 225.483, 73 247.667 L 73 288 80.030 288 L 87.060 288 86.780 247.250 L 86.500 206.500 80.459 206.208 C 77.136 206.047, 74.099 206.234, 73.709 206.624 M 98.667 206.667 C 98.300 207.033, 98 225.483, 98 247.667 L 98 288 105 288 L 112 288 112 262.318 L 112 236.636 115.250 240.923 C 117.037 243.280, 121.200 248.713, 124.500 252.995 C 127.800 257.277, 135.156 266.905, 140.847 274.390 L 151.193 288 156.108 288 L 161.022 288 160.761 247.250 L 160.500 206.500 154 206.500 L 147.500 206.500 147 231.737 L 146.500 256.975 139.477 247.737 C 135.614 242.657, 126.885 231.188, 120.079 222.250 L 107.705 206 103.519 206 C 101.217 206, 99.033 206.300, 98.667 206.667 M 183.500 207.163 C 179.126 208.747, 175.264 212.742, 173.408 217.603 C 172.152 220.890, 171.863 224.454, 172.145 233.182 C 172.555 245.929, 174.001 249.736, 179.952 253.747 C 183.089 255.861, 184.327 256, 199.957 256 C 219.535 256, 220.500 256.346, 220.500 263.369 C 220.500 265.861, 220.050 268.345, 219.500 268.889 C 218.322 270.055, 188.871 270.657, 187.083 269.552 C 186.410 269.136, 185.502 267.829, 185.065 266.648 C 184.371 264.770, 183.485 264.496, 178.016 264.467 L 171.761 264.434 172.262 270.671 C 172.815 277.568, 175.038 282.202, 179.325 285.395 C 181.985 287.377, 183.366 287.500, 203.010 287.500 L 223.870 287.500 227.024 284.500 C 232.755 279.050, 233.478 276.700, 233.490 263.500 C 233.499 252.237, 233.333 251.216, 230.784 246.880 C 226.580 239.729, 224.165 239, 204.670 239 C 190.979 239, 187.873 238.730, 186.571 237.429 C 184.567 235.424, 184.435 226.714, 186.385 225.096 C 187.329 224.312, 192.651 224.035, 203.122 224.223 L 218.476 224.500 219.792 227.250 C 221.032 229.838, 221.496 230, 227.694 230 L 234.280 230 233.712 224.494 C 232.996 217.556, 229.523 211.202, 225 208.551 C 221.877 206.721, 219.613 206.477, 204 206.288 C 193.358 206.159, 185.324 206.502, 183.500 207.163 M 245 215 L 245 224 257 224 L 269 224 269 256 L 269 288 276 288 L 283 288 283 256 L 283 224 295 224 L 307 224 307 215 L 307 206 276 206 L 245 206 245 215 M 332.519 207.551 C 327.170 209.572, 322.403 214.388, 320.262 219.934 C 318.759 223.830, 318.500 227.950, 318.500 248 C 318.500 271.475, 318.503 271.505, 321.142 276.500 C 326.307 286.275, 330.206 287.904, 348.500 287.932 C 355.650 287.943, 363.238 287.549, 365.362 287.056 C 369.892 286.005, 374.324 282.098, 377.334 276.500 C 379.317 272.813, 379.512 270.751, 379.828 250.115 C 380.196 225.993, 379.589 221.105, 375.441 214.770 C 371.076 208.105, 366.595 206.583, 350.500 206.296 C 339.978 206.109, 335.511 206.421, 332.519 207.551 M 392.728 206.605 C 392.328 207.006, 392 225.483, 392 247.667 L 392 288 399 288 L 406 288 406 272 L 406 256 410.766 256 L 415.532 256 427.876 272 L 440.219 288 449.705 288 L 459.192 288 455.846 283.587 C 454.006 281.160, 449.010 274.666, 444.745 269.157 C 435.120 256.723, 434.801 256, 438.943 256 C 446.158 256, 452.216 250.089, 454.051 241.260 C 455.786 232.915, 454.749 220.930, 451.795 215.190 C 447.525 206.893, 446.226 206.547, 417.978 206.188 C 404.491 206.017, 393.129 206.205, 392.728 206.605 M 466 247 L 466 288 497.039 288 L 528.078 288 527.789 279.250 L 527.500 270.500 524 270.344 C 522.075 270.258, 511.163 270.146, 499.750 270.094 L 479 270 479 263.019 L 479 256.038 501.250 255.769 L 523.500 255.500 523.790 247.250 L 524.081 239 501.540 239 L 479 239 479 231.500 L 479 224 503.500 224 L 528 224 528 215 L 528 206 497 206 L 466 206 466 247 M 334.123 226.570 C 331.363 230.079, 330.700 235.667, 331.163 251.519 C 331.543 264.524, 331.653 265.108, 334.198 267.652 C 336.788 270.243, 337.067 270.289, 349.070 270.101 C 355.797 269.995, 362.118 269.472, 363.115 268.938 C 366.275 267.247, 367.176 261.397, 366.829 244.828 C 366.514 229.838, 366.394 229.043, 364.076 226.578 C 361.716 224.069, 361.310 224, 348.898 224 C 336.393 224, 336.106 224.050, 334.123 226.570 M 406 231.500 L 406 239 422.300 239 C 433.644 239, 438.965 238.635, 439.800 237.800 C 440.460 237.140, 441 234.305, 441 231.500 C 441 228.695, 440.460 225.860, 439.800 225.200 C 438.965 224.365, 433.644 224, 422.300 224 L 406 224 406 231.500 M 73 356.445 L 73 394 78.982 394 L 84.963 394 85.232 370.988 L 85.500 347.976 102.755 370.988 L 120.009 394 124.005 394 L 128 394 128 356.450 L 128 318.900 122.250 319.200 L 116.500 319.500 116.231 342.855 L 115.963 366.209 98.880 342.855 L 81.797 319.500 77.399 319.195 L 73 318.890 73 356.445 M 138 356.500 L 138 394 165.500 394 L 193 394 193 385.500 L 193 377 171.500 377 L 150 377 150 370.500 L 150 364 169.500 364 L 189 364 189 356 L 189 348 169.452 348 L 149.905 348 150.202 341.750 L 150.500 335.500 171.750 335.230 L 193 334.960 193 326.980 L 193 319 165.500 319 L 138 319 138 356.500 M 203 326.984 L 203 335 213.485 335 L 223.970 335 224.235 364.250 L 224.500 393.500 230.235 393.799 L 235.970 394.099 236.235 364.799 L 236.500 335.500 247.291 335.216 L 258.083 334.931 257.791 327.216 L 257.500 319.500 230.250 319.234 L 203 318.968 203 326.984 M 269 356.500 L 269 394 273.005 394 C 276.963 394, 277.114 393.860, 286.127 381.750 C 291.142 375.012, 295.573 369.372, 295.974 369.216 C 296.376 369.060, 300.673 374.235, 305.523 380.716 C 310.373 387.197, 314.827 392.842, 315.421 393.261 C 316.014 393.680, 318.075 393.905, 320 393.761 L 323.500 393.500 323.500 356.500 L 323.500 319.500 317.768 319.201 L 312.036 318.901 311.768 342.564 L 311.500 366.227 308.359 361.864 C 306.632 359.464, 303.189 354.892, 300.709 351.704 L 296.200 345.908 288.600 355.997 L 281 366.086 281 342.543 L 281 319 275 319 L 269 319 269 356.500 M 346.500 320.153 C 341.623 321.929, 337.087 326.968, 335.473 332.404 C 333.396 339.398, 333.398 373.611, 335.476 380.609 C 338.479 390.718, 344.889 394.034, 361.218 393.924 C 377.135 393.817, 382.013 391.536, 386.337 382.181 C 388.337 377.852, 388.500 375.919, 388.500 356.500 C 388.500 335.528, 388.496 335.492, 385.702 329.802 C 381.305 320.848, 378.441 319.550, 362.500 319.281 C 355.009 319.154, 348.229 319.524, 346.500 320.153 M 398.482 320.186 C 398.203 320.914, 398.093 337.707, 398.237 357.505 L 398.500 393.500 404.223 393.799 L 409.946 394.098 410.223 379.299 L 410.500 364.500 414.625 364.199 L 418.750 363.897 429.864 378.949 L 440.977 394 448.989 394 C 453.395 394, 457 393.771, 457 393.490 C 457 393.017, 451.804 385.772, 441.336 371.651 C 438.951 368.434, 437 365.454, 437 365.029 C 437 364.604, 438.688 363.984, 440.750 363.652 C 449.666 362.218, 452.945 356.295, 452.978 341.566 C 452.996 333.565, 452.601 330.808, 450.951 327.399 C 447.253 319.760, 446.467 319.543, 421.245 319.181 C 403.478 318.927, 398.888 319.129, 398.482 320.186 M 463 356.500 L 463 394 469 394 L 475 394 475 379 L 475 364 481.511 364 L 488.023 364 499.098 379 L 510.174 394 518.087 394 C 522.439 394, 526 393.738, 526 393.418 C 526 393.098, 519.932 384.537, 512.515 374.392 L 499.029 355.948 512.515 337.944 C 519.932 328.042, 526 319.710, 526 319.430 C 526 319.149, 522.307 319.050, 517.794 319.210 L 509.588 319.500 499.001 333.500 L 488.414 347.500 481.707 347.796 L 475 348.091 475 333.546 L 475 319 469 319 L 463 319 463 356.500 M 348.455 337.455 C 346.049 339.860, 346 340.235, 346 356.232 C 346 377.878, 345.370 377, 360.902 377 C 377.090 377, 376.500 377.783, 376.500 356.311 L 376.500 339.829 373.694 337.415 C 371.133 335.210, 370.019 335, 360.899 335 C 351.626 335, 350.733 335.176, 348.455 337.455 M 410.667 335.667 C 410.300 336.033, 410 338.958, 410 342.167 L 410 348 425.025 348 L 440.050 348 441.091 345.260 C 442.400 341.819, 441.443 336.384, 439.391 335.597 C 437.255 334.777, 411.494 334.840, 410.667 335.667" stroke="none" fill="#c82830" fill-rule="evenodd"/><path d="M 279 7.570 C 279 7.884, 281.250 10.188, 284 12.691 C 286.750 15.194, 289 17.889, 289 18.680 C 289 19.472, 286.685 22.568, 283.855 25.560 C 279.115 30.572, 278.901 31, 281.136 31 C 282.774 31, 285.482 29.060, 289.470 25.031 L 295.376 19.062 289.938 13.144 C 285.979 8.835, 283.752 7.195, 281.750 7.113 C 280.238 7.051, 279 7.257, 279 7.570 M 296.898 12.486 C 302.772 18.696, 302.780 18.564, 296.013 26.250 C 292.065 30.733, 291.963 31, 294.196 31 C 295.761 31, 298.564 28.977, 302.470 25.031 L 308.376 19.062 302.938 13.144 C 298.840 8.684, 296.787 7.198, 294.605 7.113 C 291.712 7, 291.714 7.004, 296.898 12.486 M 309.914 12.413 L 315.260 17.826 313.221 20.663 C 312.100 22.223, 309.792 24.822, 308.091 26.437 C 304.490 29.858, 304.221 31, 307.013 31 C 308.166 31, 311.580 28.365, 315.008 24.829 L 320.990 18.658 315.745 12.942 C 311.752 8.591, 309.792 7.199, 307.534 7.113 L 304.568 7 309.914 12.413 M 322.784 12.281 C 325.653 15.186, 328 17.920, 328 18.356 C 328 18.792, 325.491 21.778, 322.425 24.993 L 316.851 30.837 322.675 31.448 C 346.944 33.994, 373.147 39.902, 394 47.529 C 407.925 52.622, 434 65.861, 446.793 74.334 C 500.181 109.691, 539.249 161.923, 557.421 222.237 C 561.550 235.943, 564.250 248.695, 566.635 265.750 C 567.580 272.509, 568.815 278, 569.392 278 C 569.967 278, 572.715 280.250, 575.500 283 L 580.563 288 586.382 282.119 L 592.201 276.239 591.035 266.870 C 583.707 207.972, 563.143 159.559, 525.678 113 C 516.701 101.845, 492.905 78.621, 480.979 69.378 C 435.543 34.160, 388.222 15.048, 329.026 8.008 C 324.366 7.454, 319.881 7, 319.060 7 C 318.208 7, 319.803 9.263, 322.784 12.281 M 254.500 10.102 C 188.361 20.582, 129.442 52.304, 83.256 102.300 C 39.756 149.390, 11.572 214.729, 7.366 278.240 L 6.753 287.500 12.258 282.151 C 18.576 276.012, 19.198 276.057, 26.607 283.185 L 30.714 287.136 31.384 278.318 C 34.368 239.022, 47.542 197.503, 67.994 162.941 C 108.864 93.874, 177.838 46.949, 257.500 34.013 L 270.500 31.902 276.535 25.317 L 282.570 18.731 276.944 13.366 C 270.546 7.262, 271.525 7.405, 254.500 10.102 M 12.906 289.348 C 7.968 294.004, 4.514 300, 6.769 300 C 7.212 300, 9.791 297.750, 12.500 295 C 15.209 292.250, 17.892 290.004, 18.462 290.009 C 19.033 290.014, 21.750 292.027, 24.500 294.482 C 30.098 299.480, 31 299.841, 31 297.086 C 31 295.360, 20.611 283.949, 19.119 284.036 C 18.778 284.057, 15.983 286.447, 12.906 289.348 M 569.024 286.531 C 569.005 288.912, 570.237 290.786, 574.761 295.264 L 580.522 300.965 586.761 294.916 C 590.193 291.590, 593 287.998, 593 286.934 C 593 284.120, 592.054 284.491, 586.493 289.484 C 583.747 291.951, 580.753 293.976, 579.840 293.984 C 578.927 293.993, 576.126 291.637, 573.614 288.750 L 569.049 283.500 569.024 286.531 M 12.750 302.496 C 8.445 306.551, 7 308.608, 7 310.675 C 7 313.347, 7.192 313.247, 12.846 307.652 L 18.693 301.867 24.237 306.933 C 27.286 309.720, 30.055 312, 30.390 312 C 30.726 312, 31 311.136, 31 310.080 C 31 308.462, 21.276 297.940, 19.180 297.289 C 18.806 297.173, 15.912 299.516, 12.750 302.496 M 569 299.565 C 569 301.890, 570.298 303.847, 574.779 308.281 L 580.558 314 586.779 307.723 C 590.659 303.808, 593 300.610, 593 299.223 C 593 298, 592.774 297, 592.497 297 C 592.221 297, 590.326 298.847, 588.286 301.105 C 586.246 303.363, 583.468 305.632, 582.113 306.147 C 579.935 306.975, 579.028 306.472, 574.324 301.826 L 569 296.568 569 299.565 M 74.190 303.750 L 74.500 307.500 288.327 307.739 C 489.848 307.963, 502.286 307.877, 504.452 306.244 C 505.755 305.261, 506.524 303.859, 506.228 303.005 C 505.793 301.752, 505.939 301.720, 507.103 302.817 C 508.293 303.939, 508.214 304.346, 506.573 305.557 C 505.513 306.339, 504.927 307.260, 505.270 307.604 C 506.324 308.657, 510.689 304.576, 510.205 302.990 C 509.827 301.752, 509.983 301.723, 511.125 302.817 C 512.288 303.931, 512.221 304.341, 510.690 305.471 C 509.695 306.206, 509.247 307.035, 509.695 307.312 C 510.143 307.589, 511.617 306.919, 512.969 305.824 L 515.429 303.832 512.981 301.985 C 511.292 300.712, 510.318 300.485, 509.842 301.255 C 509.342 302.064, 508.745 302.034, 507.673 301.144 C 506.499 300.170, 506.105 300.183, 505.760 301.208 C 505.410 302.247, 505 302.231, 503.663 301.128 C 501.742 299.542, 501.387 300.987, 503.242 302.842 C 504.230 303.830, 504.180 304.275, 502.992 305.026 C 500.570 306.557, 500 306.171, 500 303 L 500 300 286.940 300 L 73.879 300 74.190 303.750 M 514 300.678 C 514 301.185, 514.540 302.140, 515.200 302.800 C 516.133 303.733, 516.133 304.267, 515.200 305.200 C 514.540 305.860, 514 306.850, 514 307.400 C 514 307.967, 514.510 307.890, 515.176 307.224 C 515.965 306.435, 516.746 306.374, 517.547 307.039 C 518.371 307.723, 519.478 307.406, 521.121 306.015 L 523.500 304 521.108 301.975 C 518.242 299.548, 516.973 300.207, 519.383 302.870 C 520.798 304.435, 520.846 304.845, 519.667 305.297 C 518.803 305.629, 518.298 305.248, 518.374 304.323 C 518.443 303.487, 517.487 302.118, 516.250 301.280 C 515.013 300.442, 514 300.171, 514 300.678 M 522 300.915 C 522 301.457, 522.788 302.347, 523.750 302.893 C 525.389 303.822, 525.373 303.978, 523.502 305.360 C 522.402 306.172, 521.776 307.110, 522.110 307.443 C 523.126 308.459, 527.375 304.416, 526.603 303.167 C 525.546 301.456, 522 299.722, 522 300.915 M 12.750 315.253 C 9.588 318.533, 7 322.068, 7 323.109 C 7 325.946, 8.143 325.449, 13 320.500 C 15.429 318.025, 18.025 316, 18.768 316 C 19.511 316, 22.499 318.250, 25.406 321 C 28.314 323.750, 31.036 326, 31.455 326 C 33.400 326, 30.461 320.303, 26.609 316.608 C 18.066 308.410, 19.236 308.525, 12.750 315.253 M 568.830 312.519 C 568.558 314.821, 569.556 316.334, 574.500 321.115 L 580.500 326.918 586.750 320.738 C 590.780 316.752, 593 313.748, 593 312.279 C 593 309.118, 591.972 309.419, 588.494 313.599 C 586.847 315.579, 584.206 317.870, 582.624 318.690 C 579.784 320.163, 579.680 320.115, 574.453 314.954 L 569.159 309.726 568.830 312.519 M 13.106 327.482 C 9.663 331.122, 8.040 333.613, 8.365 334.759 C 8.637 335.716, 9.600 341.450, 10.505 347.500 C 19.189 405.567, 48.795 463.426, 91.966 506.701 C 142.150 557.007, 205.701 586.568, 276.500 592.539 L 284.500 593.214 279.877 588.357 C 272.351 580.450, 272.332 580.291, 278.179 574.343 L 283.248 569.186 276.374 568.531 C 197.055 560.972, 126.679 520.585, 80.285 456 C 57.776 424.667, 41.516 385.993, 34.939 348.150 L 32.619 334.800 26.230 328.650 C 22.717 325.267, 19.504 322.376, 19.091 322.223 C 18.678 322.071, 15.985 324.438, 13.106 327.482 M 567.520 328.250 C 561.553 375.168, 548.423 411.721, 524.505 448 C 488.469 502.662, 433.195 542.839, 370.500 559.942 C 364.450 561.592, 352.886 564.096, 344.802 565.505 L 330.104 568.068 324.572 573.784 C 321.530 576.928, 319.031 579.965, 319.020 580.534 C 319.009 581.103, 321.419 583.957, 324.375 586.876 L 329.749 592.184 344.125 589.990 C 429.078 577.023, 503.834 527.427, 549.293 453.873 C 572.798 415.842, 585.846 377.165, 591.583 328.518 L 592.288 322.536 586.564 327.768 C 583.415 330.646, 580.521 333, 580.132 333 C 579.743 333, 577.209 330.750, 574.500 328 C 571.791 325.250, 569.263 323, 568.881 323 C 568.500 323, 567.887 325.363, 567.520 328.250 M 285.216 574.281 C 282.347 577.186, 280 579.986, 280 580.502 C 280 581.019, 282.573 584.043, 285.719 587.221 C 290.058 591.606, 292.134 593, 294.326 593 C 297.213 593, 297.210 592.994, 291.608 586.943 C 288.523 583.612, 286 580.555, 286 580.151 C 286 579.747, 288.025 577.429, 290.500 575 C 295.596 569.999, 295.965 569, 292.716 569 C 291.284 569, 288.486 570.970, 285.216 574.281 M 297.719 574.779 L 292 580.558 298.277 586.779 C 302.192 590.659, 305.390 593, 306.777 593 C 308 593, 309 592.706, 309 592.347 C 309 591.987, 306.750 589.314, 304 586.406 C 301.250 583.499, 299 580.736, 299 580.268 C 299 579.800, 301.025 577.429, 303.500 575 C 308.595 570, 308.965 569, 305.719 569 C 304.267 569, 301.359 571.100, 297.719 574.779 M 310.719 574.779 L 305 580.558 311.277 586.779 C 315.192 590.659, 318.390 593, 319.777 593 C 321 593, 322 592.706, 322 592.347 C 322 591.987, 319.750 589.314, 317 586.406 C 314.250 583.499, 312 580.530, 312 579.810 C 311.999 579.089, 314.362 576.382, 317.250 573.793 L 322.500 569.087 319.469 569.043 C 317.075 569.009, 315.235 570.215, 310.719 574.779" stroke="none" fill="#2860ad" fill-rule="evenodd"/></svg>