<?xml version="1.0" encoding="UTF-8" standalone="no"?>
<!-- Created with Inkscape (http://www.inkscape.org/) -->
<svg
   xmlns:svg="http://www.w3.org/2000/svg"
   xmlns="http://www.w3.org/2000/svg"
   version="1.0"
   width="300"
   height="375"
   id="svg1">
  <defs
     id="defs1" />
  <style
     type="text/css"
     id="style4" />
  <g
     transform="matrix(200,0,0,-200,-6150,-5125)"
     id="Swaziland">
    <path
       d="M 31.97383,-25.95264 L 32.00409,-25.9903 L 32.0285,-25.99802 L 32.0285,-25.9971 L 32.05136,-26.00208 L 32.05722,-26.00458 L 32.06537,-26.00592 L 32.06967,-26.00867 L 32.07806,-26.00864 L 32.08774,-26.01089 L 32.09717,-26.07236 L 32.09906,-26.09845 L 32.10806,-26.16594 L 32.10135,-26.19403 L 32.10132,-26.1942 L 32.09631,-26.21097 L 32.09662,-26.21808 L 32.0914,-26.24449 L 32.07492,-26.31248 L 32.07538,-26.32629 L 32.07669,-26.36411 L 32.08041,-26.39851 L 32.0802,-26.40907 L 32.08923,-26.43245 L 32.09845,-26.45248 L 32.13669,-26.53555 L 32.13562,-26.62759 L 32.13724,-26.64204 L 32.13535,-26.67075 L 32.13663,-26.72101 L 32.13489,-26.72629 L 32.13306,-26.82109 L 32.13364,-26.83496 L 32.13364,-26.83496 L 32.1275,-26.83212 L 32.11975,-26.83037 L 32.11853,-26.83009 L 32.11209,-26.82118 L 32.11209,-26.81982 L 32.11206,-26.81406 L 32.10965,-26.81149 L 32.10947,-26.81131 L 32.10001,-26.80653 L 32.08237,-26.81119 L 32.07138,-26.81238 L 32.06812,-26.81371 L 32.06625,-26.81445 L 32.05374,-26.81496 L 32.03964,-26.81065 L 32.0343,-26.81076 L 32.01379,-26.81119 L 32.01285,-26.81461 L 32.01001,-26.82451 L 32.01108,-26.83324 L 32.00732,-26.85207 L 32.00186,-26.89363 L 32.00174,-26.89584 L 32.00092,-26.91383 L 31.99815,-26.92601 L 31.99757,-26.93045 L 31.99304,-26.96548 L 31.99245,-26.97009 L 31.99115,-26.97296 L 31.99016,-26.97514 L 31.99016,-26.97685 L 31.99019,-26.98502 L 31.98624,-27.02359 L 31.98306,-27.06148 L 31.98438,-27.07042 L 31.98068,-27.11336 L 31.98232,-27.13448 L 31.9799,-27.16106 L 31.9796,-27.16432 L 31.98018,-27.18245 L 31.97905,-27.21941 L 31.97714,-27.25844 L 31.97719,-27.27083 L 31.98749,-27.29555 L 31.98972,-27.30249 L 31.99666,-27.31444 L 31.99794,-27.31691 L 31.98489,-27.31691 L 31.98453,-27.31691 L 31.97729,-27.31691 L 31.94791,-27.31693 L 31.5876,-27.31528 L 31.49361,-27.31447 L 31.34605,-27.26591 L 31.27487,-27.24274 L 31.27435,-27.24257 L 31.15076,-27.20157 L 31.06154,-27.09578 L 30.98497,-27.03645 L 30.95869,-26.99182 L 30.97699,-26.95068 L 30.97377,-26.90768 L 30.94156,-26.8864 L 30.91499,-26.86221 L 30.90961,-26.86089 L 30.90253,-26.85139 L 30.8916,-26.78232 L 30.89142,-26.78339 L 30.88805,-26.80327 L 30.87053,-26.81071 L 30.86076,-26.81911 L 30.84821,-26.81903 L 30.84477,-26.82402 L 30.83607,-26.82631 L 30.82561,-26.83929 L 30.81334,-26.84352 L 30.80296,-26.82417 L 30.79315,-26.73589 L 30.793,-26.73457 L 30.79277,-26.56889 L 30.80128,-26.50368 L 30.80603,-26.46725 L 30.80612,-26.46661 L 30.83122,-26.4106 L 30.85777,-26.38322 L 30.89206,-26.32025 L 30.96164,-26.26115 L 31.07123,-26.06671 L 31.11183,-25.98364 L 31.11211,-25.98309 L 31.12679,-25.92056 L 31.26375,-25.80904 L 31.31612,-25.74243 L 31.41647,-25.71815 L 31.41722,-25.71863 L 31.86801,-25.99902 L 31.97383,-25.95264 z "
       style="fill:#ffffff;stroke:#000000;stroke-width:0.01"
       id="path7" />
  </g>
</svg>
