<?xml version="1.0" encoding="UTF-8" standalone="no"?>
<!-- Created with Inkscape (http://www.inkscape.org/) -->
<svg
   xmlns:dc="http://purl.org/dc/elements/1.1/"
   xmlns:cc="http://web.resource.org/cc/"
   xmlns:rdf="http://www.w3.org/1999/02/22-rdf-syntax-ns#"
   xmlns:svg="http://www.w3.org/2000/svg"
   xmlns="http://www.w3.org/2000/svg"
   xmlns:sodipodi="http://sodipodi.sourceforge.net/DTD/sodipodi-0.dtd"
   xmlns:inkscape="http://www.inkscape.org/namespaces/inkscape"
   width="744.09448819"
   height="1052.3622047"
   sodipodi:version="0.32"
   inkscape:version="0.44">
  <metadata>
    <rdf:RDF>
      <cc:Work rdf:about="">
        <dc:format>image/svg+xml</dc:format>
        <dc:type rdf:resource="http://purl.org/dc/dcmitype/StillImage" />
      </cc:Work>
    </rdf:RDF>
  </metadata>
  <g
     inkscape:label="Layer 1"
     inkscape:groupmode="layer"
     style="fill:none;fill-rule:evenodd;stroke:black;stroke-width:2.5px;stroke-linecap:butt;stroke-linejoin:miter;stroke-opacity:1">
    <path
       d="M 410.88415,16.729048 C 410.36528,19.217407 408.2516,23.656224 407.22208,27.715255 C 406.65746,29.941358 407.1275,32.410909 406.82789,34.842949 C 406.59639,36.722188 405.02484,38.375621 405.02484,40.16629 C 405.02484,43.333472 404.41975,46.981131 403.56001,50.420084 C 402.60857,54.225869 401.1388,56.999435 400.34518,60.173877 C 399.55699,63.326648 397.02488,64.902426 395.73587,67.480429 C 394.63366,69.684853 391.9121,70.554199 389.87656,72.589739 C 387.35784,75.108467 385.49259,77.170954 382.99967,79.663878 C 380.25415,82.409395 382.46594,84.273618 381.15794,89.505602 C 380.0728,93.846152 378.40794,98.644952 377.15794,103.65388 C 376.46745,106.42076 375.9607,109.88013 374.9607,114.39009 C 374.36269,117.08709 373.53105,119.26479 373.53105,123.66147 C 373.53105,128.01702 376.4607,131.61214 376.4607,136.1125 C 376.4607,138.13806 373.45735,142.26661 372.79863,144.90147 C 372.18264,147.36545 368.15557,149.87153 366.93932,151.49319 C 363.91367,155.5274 364.29257,154.59258 358.88277,151.88767 C 355.23495,150.06376 356.49692,150.9756 351.82622,150.9756 C 346.88544,150.9756 348.06507,155.88952 347.21691,159.28216 C 346.48702,162.20172 345.73521,170.88472 345.87898,172.78595 C 346.32444,178.67688 345.31604,184.19978 344.44932,187.66664 C 343.43926,191.70687 343.24452,195.07755 342.23449,199.11767 C 340.89581,204.47242 342.50239,208.19103 340.57242,213.01595 C 339.14789,216.57729 338.10916,222.56089 337.17794,227.21699 C 336.165,232.28172 335.46311,236.45466 334.21311,241.34768 C 333.1607,245.46724 332.61712,250.41129 331.76587,253.8163 C 330.7608,257.83657 330.06863,261.57888 328.81863,264.76733 C 327.72697,267.55189 326.95014,272.77648 326.13898,276.02112 C 324.98079,280.65386 324.98295,281.96556 323.72691,286.98975 C 322.59487,291.51789 322.59958,295.89355 321.52966,300.17319 C 320.57841,303.97821 319.80501,307.28458 318.60001,309.69457 C 317.29992,312.29476 315.23826,316.60641 314.40277,319.94837 C 313.60855,323.12525 312.20553,324.44918 312.20553,328.73733 C 312.20553,333.0276 309.81952,335.48411 308.27587,338.2763 C 306.11222,342.18995 305.2458,345.78727 304.38139,349.24492 C 303.69073,352.00756 300.88487,356.35408 300.21932,359.0163 C 299.34144,362.52784 299.52995,365.37745 298.30725,367.82285 C 296.67756,371.08224 297.70116,375.01745 295.91277,378.59423 C 294.96311,380.49354 292.75445,384.81921 292.43035,386.11561 C 290.39896,390.17839 287.28587,396.41957 285.78587,399.29906 C 285.22028,400.38481 281.7785,408.11657 281.17656,409.32044 C 279.5463,412.58096 278.34395,416.50325 277.28208,418.62699 C 275.02862,423.13391 274.17371,421.62703 272.92277,426.63078 C 272.03578,430.17875 269.84217,431.29111 268.99311,434.68734 C 268.1468,438.07258 265.86921,440.7379 264.86621,442.74389 C 262.37394,447.72843 258.77172,451.52082 256.80966,455.44492 C 255.05896,458.94634 252.79042,459.751 251.16518,463.00148 C 249.10204,467.12776 248.32868,468.39857 252.68277,470.57561 C 254.57368,471.52107 259.93152,476.90831 260.73932,478.88217 C 261.71902,481.27608 261.0301,484.04652 260.46131,485.49919 C 259.74357,487.33229 256.65234,490.23162 255.12735,491.45513 C 253.71925,492.58488 250.55027,492.30417 249.2734,493.58106 C 246.71342,496.14103 244.96096,498.62592 242.68167,500.9052 C 240.46306,503.12381 239.80559,505.67521 238.03449,507.4463 C 234.92199,510.5588 231.7675,514.05244 229.92732,516.03319 C 226.47493,519.74931 225.83578,520.98592 224.06801,524.97362 C 222.63231,528.21225 219.45985,528.61388 220.65864,533.40903 C 221.08437,535.11192 222.74475,535.08496 222.96706,536.89719 C 223.23466,539.07865 222.50443,541.99134 221.84546,543.30928 C 220.25871,546.48278 218.01029,548.08287 216.03677,550.63342 C 214.82754,552.1962 212.97351,552.63361 209.69689,554.60979 C 207.19706,556.11747 205.71808,559.36258 204.57084,559.64939 C 202.24617,560.23056 201.50378,560.57685 199.78814,560.1801 C 199.33682,560.07573 199.69383,559.82951 199.28936,559.10989 C 198.6957,558.05367 198.38692,556.11741 197.53792,553.76669 C 195.84212,549.07134 193.61722,544.30967 193.05394,543.18311 C 190.79464,538.66452 188.22422,536.16842 190.0238,534.36884 C 192.92026,531.47237 197.61111,527.10558 199.31778,525.04954 C 203.31881,520.22948 205.04167,518.40826 210.43015,513.88656 C 214.30253,510.63708 216.23922,507.65529 221.01219,502.01647 C 224.16434,498.29252 226.63517,496.26696 229.32107,493.58106 C 236.42491,486.47722 232.05002,488.87135 240.08027,480.39723 C 242.96915,477.34866 245.40931,476.50734 246.97492,473.5275 C 247.334,472.84406 248.9067,466.92651 249.63911,466.68237"
       sodipodi:nodetypes="cssssssssssssssssssssssssssssssssssssscssssssssssssssssssssssssssssssssssc" />
    <path
       d="M 189.54371,536.59139 C 191.1125,533.07805 186.162,539.59386 183.179,541.16264 C 180.1771,542.74137 177.47283,545.17698 174.84482,547.80499 C 172.48172,550.16808 168.47215,552.30468 164.99519,554.04316 C 161.96067,555.56042 158.71598,557.50708 155.80206,558.94266 C 150.96577,561.32533 146.74163,564.40973 141.63349,566.31704 C 136.99331,568.04962 134.20376,568.84467 130.84937,569.72678 C 127.5532,570.59359 126.86093,572.69384 123.09576,572.88384 C 118.63486,573.10894 115.79638,574.54476 111.14975,576.04088 C 106.97635,577.38463 97.534407,580.53691 94.708773,581.24332 C 89.773023,582.47726 85.7957,583.77462 80.56552,585.08217 C 74.710784,586.54585 77.897024,586.60061 71.977892,587.78444 C 69.956125,588.18879 63.888072,589.46328 59.393149,589.41016 C 55.478741,589.3639 52.742873,590.40818 49.5012,589.77959 C 46.268938,589.15282 40.976886,588.12274 37.984663,587.45619 C 35.093615,586.81217 34.33884,586.64992 30.76138,585.05686 C 27.367189,583.5454 24.368309,582.22843 21.366163,580.99099"
       sodipodi:nodetypes="csssssssssssssssc" />
    <path
       d="M 304.81031,1046.3261 C 304.99525,1044.6046 305.72233,1037.3107 306.14897,1035.5167 C 307.13393,1031.375 307.8647,1031.1752 310.67,1027.4348 C 312.47577,1025.0271 313.45661,1021.6398 315.5695,1018.8226 C 317.86706,1015.7592 319.47824,1012.4643 322.03506,1009.9075 C 323.59217,1008.3504 325.05838,1002.9206 327.16195,1000.7649 C 329.3372,998.53581 334.24393,997.65006 337.69339,996.01694 C 340.92579,994.48657 342.84436,993.2159 344.84074,989.22313 C 346.48166,985.94129 349.85585,982.48521 352.84668,980.9898 C 354.70853,980.05887 357.96038,982.17705 358.61512,985.20083 C 359.21147,987.95495 357.29178,991.55072 357.29178,992.50633 C 357.29178,996.1303 355.71596,997.45142 354.38743,1000.1085 C 353.06402,1002.7553 352.16488,1004.555 352.16488,1008.9227 C 352.16488,1012.0952 350.39711,1017.7972 350.39711,1021.2978 C 350.39711,1025.6997 350.59083,1027.0388 349.10907,1031.1981 C 348.17981,1033.8065 347.27336,1037.3444 346.12879,1039.6335 C 345.65171,1040.5877 344.41827,1045.8232 344.13363,1046.2501"
       sodipodi:nodetypes="csssssssssssssssc" />
    <path
       d="M 336.75889,995.58746 C 335.77707,991.18713 332.11951,988.21602 332.01085,984.04561 C 331.86688,978.51999 329.61152,973.26312 329.61152,967.55402 C 329.61152,963.55393 331.21931,962.58695 332.1117,959.01738 C 332.91016,955.82357 330.52071,952.04986 329.8136,949.09183 C 329.12607,946.21568 328.13281,940.34857 327.38898,937.37321 C 326.49037,933.77878 324.69329,930.0002 323.7016,926.03346 C 323.01487,923.28651 321.97467,921.72678 321.1508,918.43131 C 320.19839,914.62169 318.16994,909.48713 317.51405,906.20767 C 316.91145,903.1947 315.09674,894.63024 313.44781,891.33237 C 311.42873,887.29421 311.3783,886.9185 310.31607,882.66957 C 309.68353,880.1394 308.36348,877.48559 307.76527,875.09274 C 306.75257,871.04192 306.21633,868.05514 304.43145,864.48538 C 302.62226,860.86702 301.0119,856.11049 300.08758,852.41321 C 299.07169,848.34967 297.43397,845.30938 296.42551,841.27554 C 295.42376,837.26851 293.28534,832.73046 292.40989,829.22867 C 291.46003,825.42921 290.20575,821.68519 288.74782,818.04038 C 287.08105,813.87345 286.70157,811.57289 285.61608,807.23094 C 284.53934,802.92396 282.75847,800.69961 281.82785,796.97715 C 280.98453,793.60384 278.47963,787.44844 277.81222,784.77882 C 276.70423,780.34683 276.61981,781.06663 273.97338,777.53022 C 271.49628,774.2201 269.70337,774.32088 266.62393,771.24144 C 265.2385,769.856 262.32575,770.26271 261.39985,769.02844 C 260.28554,767.54302 260.68607,764.45721 260.73932,762.32631 C 260.86783,757.18351 262.83533,754.32006 262.83533,749.14286 C 262.83533,744.88991 261.06798,740.93615 260.0069,736.69183 C 259.05564,732.88678 257.96635,729.89319 256.92578,725.73092 C 255.52448,720.12573 255.26399,717.12898 252.68277,711.96654 C 251.19415,708.98931 250.81291,705.69961 249.90458,702.0663 C 249.01299,698.49995 247.91658,695.17495 245.91426,690.878 C 244.2572,687.32195 242.66714,684.38 241.72186,680.59891 C 240.66649,676.37743 239.46405,678.51293 238.38804,674.20889 C 238.08612,673.00119 235.83623,665.17278 235.53431,666.38048 C 234.90304,663.85539 232.81108,659.49487 231.56893,657.01057 C 229.79485,653.46241 227.89389,648.39671 227.02298,644.91308 C 225.88691,640.36882 222.31841,632.10595 221.16367,627.48699 C 219.95445,622.65013 218.00303,619.97099 216.79449,615.13682 C 215.73023,610.87979 213.79299,607.47467 212.77887,603.41819 C 211.78544,599.44448 209.48014,595.4008 208.56116,591.72488 C 207.62007,587.96054 206.61072,586.01326 205.83359,582.12758 C 205.1805,578.86217 203.89104,576.35216 202.92924,572.50497 C 201.9066,568.41438 201.57353,567.41076 200.68139,563.84217 C 200.41677,562.78369 199.44546,560.01278 199.13304,558.7631"
       sodipodi:nodetypes="cssssssssssssssssssssssssssssssscsssssssssc" />
    <path
       d="M 477.53381,264.28492 C 477.43135,263.87509 468.70215,261.13667 466.78001,260.17561 C 463.48475,258.52798 460.53722,254.81691 459.18829,252.11906 C 457.82914,249.40075 456.50317,246.2367 454.57898,244.3125 C 452.29236,242.02589 450.15163,238.67033 447.73725,236.25595 C 445.15086,233.66955 440.12555,231.96769 437.44829,230.62905 C 433.12123,228.46553 429.68738,231.66423 424.71208,231.66423 C 420.54039,231.66423 421.39204,230.62568 416.47587,229.39664 C 412.32164,228.35808 411.04616,224.77507 406.9545,223.75216 C 401.91844,222.49314 402.67758,225.66701 400.63036,228.39664 C 398.58656,231.12171 396.59168,231.88081 393.30622,233.52354 C 390.09004,235.13163 387.96301,236.6695 385.98208,238.65043 C 384.62433,240.00819 379.92193,242.04672 377.92553,243.04492 C 375.30954,244.35291 373.27506,248.68378 372.79863,249.63664 C 371.31407,252.60577 370.61898,255.34054 370.61898,259.64043 C 370.61898,263.7561 369.13656,267.35643 369.13656,271.60906 C 369.13656,276.11005 367.65415,278.74026 366.90415,283.06009 C 366.27468,286.68568 366.20691,291.64565 366.20691,295.77871 C 366.20691,299.4797 364.60753,303.83451 363.81242,307.01492 C 362.86811,310.79217 359.78737,312.79099 358.91794,316.26871 C 357.78187,320.81299 355.85172,321.24877 355.30863,325.00492 C 354.85097,328.17024 356.96607,334.11798 358.41794,336.61423 C 359.13555,337.84804 360.88277,345.33086 360.88277,347.11802 C 360.88277,352.24492 361.13277,352.87182 361.13277,357.99871 C 361.13277,359.95683 358.51411,367.43819 357.93553,369.75251 C 356.9951,373.51421 355.56537,376.90206 354.7207,381.22113 C 353.93053,385.26152 354.95367,388.55685 354.04105,392.20734 C 353.27324,395.27857 352.32622,397.55848 351.32622,401.97871 C 349.99737,407.85251 350.9299,406.25061 353.4707,409.30285 C 355.56043,411.81322 359.74452,410.01768 363.68932,410.01768 C 368.27289,410.01768 370.2322,408.52015 373.9607,407.58803 C 377.09503,406.80444 378.77308,405.8732 380.23208,405.8732 C 385.51708,405.8732 390.11521,409.37943 392.75346,412.01768 C 394.79206,414.05628 397.33172,418.16433 399.11277,420.53906 C 401.20765,423.33224 402.44473,423.34552 404.50725,427.84561 C 405.85031,430.77595 398.00186,428.54285 395.98587,428.54285 C 394.71316,428.54285 390.31614,431.85134 389.14415,432.43734 C 386.06554,433.97664 383.69663,436.18315 380.85518,438.31423 C 377.3156,440.96892 374.66163,441.29296 371.54863,444.40596 C 369.04434,446.91025 367.09766,448.56989 364.24208,449.99768 C 361.483,451.37722 359.44328,454.09885 357.43553,457.10699 C 354.92684,460.86568 353.25035,459.90322 351.11139,464.18113 C 349.46179,467.48033 348.1097,469.63512 347.16415,473.41734 C 346.1873,477.32474 346.69056,482.18376 346.44932,486.13596 C 346.18686,490.43581 346.76478,492.90928 345.76967,496.88975 C 344.98604,500.02427 342.20697,504.1321 340.62518,505.71389 C 338.49869,507.84038 335.90876,510.98466 334.74829,513.30561 C 333.06047,516.68124 337.00627,523.24326 338.39277,524.62975 C 343.21675,529.45374 343.17583,527.87233 349.36139,529.41872 C 354.02079,530.58357 357.58355,528.65113 362.50967,528.65113 C 367.33012,528.65113 371.19129,526.70595 375.4607,526.70389 C 379.46841,526.70196 384.75133,528.10794 388.91174,527.22148 C 393.60501,526.22148 395.26701,525.24645 397.93312,524.50665 C 401.86537,523.41552 404.58005,523.94198 408.2045,522.12975 C 410.65009,520.90695 413.75312,518.25682 416.01105,515.50286 C 418.24856,512.7738 421.78793,510.64904 425.03243,508.64355 C 429.26546,506.02703 429.38248,505.0259 431.87415,502.53424 C 434.58655,499.82184 437.65233,497.62491 440.89553,495.19251 C 443.08394,493.55121 444.49975,495.09331 446.91691,493.28044 C 448.97276,491.73856 454.26309,491.06561 457.63553,491.06561 C 458.36794,491.06561 461.77722,490.29288 462.33277,489.81561 C 466.1158,486.56561 462.93903,484.17474 463.22346,479.14975 C 463.45227,475.10738 463.94041,473.02175 464.40312,470.62837 C 465.34873,465.73715 466.26346,464.26116 467.2976,460.12458 C 468.42391,455.61936 468.21984,452.56209 469.26243,448.17354 C 470.28086,443.88668 472.11503,438.45075 473.87174,434.93734 C 475.60908,431.46265 476.51964,430.07617 477.23105,426.93354 C 478.26519,422.36527 478.15764,417.73018 478.26622,413.69734 C 478.36783,409.92352 478.08494,404.98816 477.33657,401.2463 C 476.61461,397.63653 474.60415,394.08253 474.60415,390.26009 C 474.60415,385.42264 474.13932,381.914 474.13932,377.07665 C 474.13932,373.11708 472.5864,368.82946 471.9245,364.85802 C 470.94228,358.96475 469.96724,358.07774 471.0476,351.51251 C 472.0476,345.43564 471.99721,346.04161 473.19208,340.99113 C 474.44485,335.69592 472.9833,334.43232 476.23105,331.18457 C 477.85059,329.56504 478.46346,322.67083 478.46346,320.19837 C 478.46346,316.28948 481.00825,310.44507 481.92829,306.76492 C 482.9089,302.84247 482.39312,300.34162 482.39312,295.5463 C 482.39312,291.78388 480.14312,288.80947 480.14312,285.06009 C 480.14312,280.77414 481.42886,276.93545 480.46346,273.07388 C 479.71448,270.07796 478.51036,267.21457 477.53381,264.28492 z "
       sodipodi:nodetypes="csssssssssssssssssssssssssssssssssssssssssssssssssssssssssssssssssssssssssssssssc" />
    <path
       d="M 478.26622,265.74975 C 478.14632,265.27014 477.43892,256.18206 477.98105,254.01354 C 478.97535,250.03633 479.51013,246.12584 480.46346,242.3125 C 481.44709,238.37801 480.32933,233.71841 480.42829,229.84388 C 480.52786,225.94562 480.28209,223.7553 480.17829,219.84009 C 480.08471,216.31031 482.46346,212.44899 482.46346,208.87147 C 482.46346,204.39187 482.22951,200.96556 482.94588,198.10009 C 483.67835,195.17019 486.41689,194.79263 488.52001,193.24078 C 492.19828,190.52665 494.99324,189.99547 499.07657,187.07871 C 501.70718,185.19964 499.43435,183.20396 499.29009,181.11198 C 499.20726,179.9109 500.01442,177.40041 501.43588,175.0925 C 503.49415,171.75066 503.40109,171.633 503.50622,167.30354 C 503.59354,163.70769 503.0575,159.70772 500.41829,157.01457 C 498.87664,155.44141 497.85763,152.73908 497.82657,150.45802 C 497.79256,147.96029 499.36174,145.92985 497.36174,142.43664 C 495.52196,139.22327 491.33447,136.88281 493.64691,133.18284 C 495.93861,129.51605 497.06603,125.75348 497.02381,122.16147 C 496.97787,118.25334 497.04139,114.87457 497.04139,111.22802 C 497.04139,107.43622 497.30898,103.47452 497.30898,99.491809 C 497.30898,95.82974 498.55898,91.917671 498.55898,88.255602 C 498.55898,84.287814 499.40817,81.338609 499.29139,78.001808 C 499.15324,74.054409 499.37475,70.120278 500.70346,67.462843 C 502.02065,64.828469 501.96037,61.452804 502.6507,58.691463 C 503.65155,54.688087 504.20156,51.023206 505.09795,47.43767 C 506.5001,41.829037 504.29953,42.615566 500.22105,41.595945 C 494.96091,40.28091 500.21676,39.793683 496.93208,43.078359 C 493.64201,46.368433 490.64607,37.941898 488.34036,37.469049 C 483.7214,36.521805 481.60704,46.578191 480.46346,51.152497 C 479.38053,55.484209 478.51135,56.521555 476.80139,59.941463 C 475.06945,63.405359 474.16131,67.41888 472.40691,70.92767 C 470.54698,74.647525 469.74257,78.771667 467.5476,80.966636 C 464.62376,83.890475 461.7613,83.3422 458.29381,85.075947 C 455.06849,86.688605 454.2953,89.238016 449.77243,89.238016 C 448.97762,89.238016 441.72022,92.003087 440.99583,92.022789 C 435.66993,92.167638 432.62855,90.812762 429.12415,87.30836 C 426.5628,84.747012 425.9965,85.128705 422.38794,83.628705 C 420.22882,82.731204 415.876,80.550656 412.63415,81.361119 C 408.00293,82.518924 406.8428,79.593533 402.75346,80.843533 C 396.07108,82.886156 400.41,82.878705 393.49587,82.878705 C 390.40775,82.878705 389.92553,84.079543 387.17553,84.417671 C 380.63308,85.222103 383.42541,83.941119 381.58113,85.491656"
       sodipodi:nodetypes="csssssssssssssssssssssssssssssssssssssssc" />
    <path
       d="M 494.11174,43.381118 C 494.11174,47.171158 494.11143,36.324873 496.79139,33.64491 C 498.84898,31.58732 504.44041,28.947669 507.49243,28.947669 C 508.63477,28.947669 509.96336,26.897456 511.59832,25.872515 C 513.89219,24.434517 516.54704,23.804159 518.01381,23.070772 C 520.79701,21.679172 523.63072,20.003522 526.28519,18.676289 C 528.72957,17.454096 528.5212,16.834662 530.66209,15.76422"
       sodipodi:nodetypes="csssssc" />
    <path
       d="M 501.70346,184.45181 C 504.18462,183.21124 509.86327,180.18002 512.68967,179.04946 C 516.11229,177.68041 518.30834,174.27135 520.51775,173.16665 C 523.91576,171.46764 529.04977,174.11012 532.25986,173.3076 C 535.94411,172.38654 539.48049,174.38767 542.2147,175.48135 C 546.51315,177.20073 550.87778,176.20923 554.43726,177.86009 C 558.56221,179.77322 562.20317,180.4991 565.42347,183.7194 C 568.82254,187.11848 571.16895,188.89047 574.48789,192.20941 C 577.34536,195.06688 579.57361,203.19961 581.53657,206.47121 C 583.81782,210.27329 585.15513,212.62999 586.93892,216.19758 C 588.69128,219.70229 591.31781,224.1034 595.90939,226.63286 C 600.39771,229.10544 601.30476,228.62589 606.39166,230.5469 C 611.06222,232.31068 613.63701,229.07985 618.93666,229.08207 C 622.67508,229.08364 623.51967,230.77986 629.89938,235.69728 C 633.77393,238.68376 635.28248,240.40193 638.1844,242.54098 C 642.9662,246.06574 646.96225,249.14508 650.38347,252.5663 C 654.00852,256.19135 655.50586,259.15352 658.44002,262.08768 C 661.37445,265.02211 662.9143,263.75601 667.9614,265.01733 C 676.02733,267.03308 677.83069,266.62732 683.01964,268.7029 C 687.2671,270.40188 690.53194,271.56541 694.46281,273.53084 C 696.98396,274.79142 698.83334,272.96795 700.82606,273.9643"
       sodipodi:nodetypes="csssssssssssssssssssc" />
    <path
       d="M 351.35655,1027.1571 C 354.19136,1028.5745 360.42391,1028.2686 366.0305,1030.1374 C 373.74295,1032.7082 377.08402,1031.215 384.69478,1033.1177 C 393.00186,1035.1945 403.914,1036.3167 412.60205,1038.0931 C 417.256,1039.0447 427.44281,1040.6305 432.83126,1041.8307 C 436.79936,1042.7146 439.95832,1043.3629 444.22164,1044.1035 C 448.29174,1044.8106 457.07998,1046.1248 460.15758,1046.0987"
       sodipodi:nodetypes="csssssc" />
    <path
       d="M 618.88967,1047.2353 C 621.11737,1045.2908 624.5869,1041.2631 626.5923,1039.9365 C 633.38105,1035.4458 636.10174,1032.915 640.91271,1027.1822 C 642.33318,1025.4895 646.67178,1025.0533 648.56248,1022.839 C 650.37313,1020.7185 655.55262,1014.1545 657.68193,1013.0898 C 662.28561,1010.788 663.22456,1009.4921 666.49657,1006.2201 C 669.0327,1003.684 672.86044,1000.7654 675.81587,997.81001 C 679.31792,994.30796 681.5336,992.84999 685.16047,989.22313 C 687.5368,986.84679 688.54872,982.32045 689.75703,979.90383 C 691.35344,976.71101 693.79407,973.64814 695.61634,970.00359 C 696.74037,967.75554 699.89689,965.18024 700.66732,962.0985"
       sodipodi:nodetypes="csssssssssc" />
    <path
       d="M 354.31151,981.4189 C 354.56474,980.91245 353.14255,977.96892 353.5434,975.08908 C 353.91362,972.42929 356.09875,969.8758 356.53406,968.13459 C 357.24839,965.27728 358.95171,962.33985 360.44882,959.34563 C 361.68009,956.88309 362.33575,952.21265 363.52995,949.82425 C 365.72837,945.42741 365.66026,941.73284 366.88908,936.81758 C 367.75097,933.37002 369.54073,928.85166 369.54073,925.27573 C 369.54073,921.56545 371.81352,918.50889 371.81352,914.441 C 371.81352,909.32836 374.52453,907.91512 375.60175,903.60626 C 376.49003,900.05315 375.05424,895.19084 376.00629,891.38261 C 376.80474,888.1888 375.82951,884.41509 375.82951,881.10351 C 375.82951,877.05086 377.76619,872.52277 378.68325,868.85456 C 379.94652,863.80145 380.53424,860.37576 382.5474,855.34287 C 384.03498,851.62391 385.52517,849.08759 388.43202,846.90745 C 390.99797,844.98299 392.47134,843.19799 393.93777,840.26512 C 395.80886,836.52295 394.6955,829.83545 394.6955,825.3139 C 394.6955,821.40769 394.6955,817.50149 394.6955,813.59528 C 394.6955,809.00821 395.50346,804.60753 395.50346,799.67942 C 395.50346,796.31924 394.77105,792.3291 394.77105,788.69321 C 394.77105,784.6392 394.79635,781.16745 393.73569,776.7725 C 392.46267,771.49762 393.00393,770.73826 392.82651,765.43237 C 392.70298,761.7383 394.06394,751.1761 394.77105,747.67804 C 395.71026,743.03176 395.89956,740.96673 396.96829,736.69183 C 397.84772,733.17411 399.88966,729.3698 400.68097,725.73092 C 401.70139,721.03844 403.81271,719.5341 405.75725,715.45183 C 406.39734,714.10806 407.63702,710.95987 407.9545,710.32493 C 407.9545,704.93653 411.76452,701.51731 413.88935,697.26764 C 415.78675,693.47284 416.23806,690.49364 417.80412,687.01385 C 420.1249,681.85709 421.15755,676.59469 423.33519,672.23941 C 425.16166,668.58646 428.46208,665.17864 428.46208,660.52079 C 428.46208,656.31186 429.65455,652.2197 431.5179,648.3727 C 433.17991,644.94135 434.07589,642.85723 436.41741,639.7352 C 438.67072,636.73079 441.78346,634.70015 444.52457,631.14832 C 446.91539,628.05039 447.75574,623.3983 449.70208,619.50562 C 451.48032,615.94913 449.7818,612.78014 451.44492,609.45391 C 453.19178,605.96017 455.56139,599.19047 455.56139,595.33596 C 455.56139,593.01864 458.33969,592.74597 458.93829,590.047 C 459.92094,585.61641 460.45148,578.74924 459.22346,576.2932 C 457.2108,572.26789 455.98154,571.57694 454.32898,568.27182 C 452.81021,565.23429 450.74547,563.60365 449.96967,560.50044 C 449.1692,557.29857 450.83487,549.85797 451.89932,547.72906 C 453.6827,544.16232 453.87611,542.01918 454.82898,538.20768 C 455.77034,534.44224 457.02787,530.54704 458.23835,526.99409 C 459.29901,523.88087 459.93554,521.73295 460.71592,518.61143 C 461.58788,515.12358 462.22807,510.0464 463.38553,507.73148 C 465.09308,504.31639 463.11811,502.71798 462.74484,499.9601 C 462.31488,496.78338 462.54479,491.53618 461.36794,490.65354"
       sodipodi:nodetypes="csssssssssssssssssssssssscssssssssssssssssssssc" />
    <path
       d="M 415.5,413.86218 C 414.65138,412.69034 413.56021,412.40963 411.75,412.86218 C 410.97946,413.05482 410.65282,414.7509 410.5,415.36218 C 410.06762,417.09168 411.18035,417.74745 412,418.36218 C 413.49669,419.4847 414.55511,418.83069 416.25,417.86218 C 416.81931,417.53686 415.5,414.15307 415.5,413.86218 z " />
  </g>
</svg>
